<?xml version="1.0" encoding="UTF-8" standalone="no"?>
<!DOCTYPE svg PUBLIC "-//W3C//DTD SVG 1.1//EN"
 "http://www.w3.org/Graphics/SVG/1.1/DTD/svg11.dtd">
<!-- Generated by graphviz version 12.2.1 (20241206.2353)
 -->
<!-- Pages: 1 -->
<svg width="1084pt" height="521pt"
 viewBox="0.00 0.00 1084.23 521.34" xmlns="http://www.w3.org/2000/svg" xmlns:xlink="http://www.w3.org/1999/xlink">
<g id="graph0" class="graph" transform="scale(1 1) rotate(0) translate(4 506.17)">
<polygon fill="white" stroke="none" points="-4,15.17 -4,-506.17 1080.23,-506.17 1080.23,15.17 -4,15.17"/>
<!-- Record_2a800ea2379cc3e8407a45429d5c739f -->
<g id="node1" class="node">
<title>Record_2a800ea2379cc3e8407a45429d5c739f</title>
<polygon fill="none" stroke="black" points="413.97,-0.5 413.97,-490.5 642.47,-490.5 642.47,-0.5 413.97,-0.5"/>
<text text-anchor="middle" x="445.59" y="-473.2" font-family="Times,serif" font-size="14.00">VSS</text>
<polyline fill="none" stroke="black" points="413.97,-466 477.22,-466"/>
<text text-anchor="middle" x="445.59" y="-448.7" font-family="Times,serif" font-size="14.00">RDY</text>
<polyline fill="none" stroke="black" points="413.97,-441.5 477.22,-441.5"/>
<text text-anchor="middle" x="445.59" y="-424.2" font-family="Times,serif" font-size="14.00">1 (OUT)</text>
<polyline fill="none" stroke="black" points="413.97,-417 477.22,-417"/>
<text text-anchor="middle" x="445.59" y="-399.7" font-family="Times,serif" font-size="14.00">IRQ</text>
<polyline fill="none" stroke="black" points="413.97,-392.5 477.22,-392.5"/>
<text text-anchor="middle" x="445.59" y="-375.2" font-family="Times,serif" font-size="14.00">N.C.</text>
<polyline fill="none" stroke="black" points="413.97,-368 477.22,-368"/>
<text text-anchor="middle" x="445.59" y="-350.7" font-family="Times,serif" font-size="14.00">NMI</text>
<polyline fill="none" stroke="black" points="413.97,-343.5 477.22,-343.5"/>
<text text-anchor="middle" x="445.59" y="-326.2" font-family="Times,serif" font-size="14.00">SYNC</text>
<polyline fill="none" stroke="black" points="413.97,-319 477.22,-319"/>
<text text-anchor="middle" x="445.59" y="-301.7" font-family="Times,serif" font-size="14.00">VCC</text>
<polyline fill="none" stroke="black" points="413.97,-294.5 477.22,-294.5"/>
<text text-anchor="middle" x="445.59" y="-277.2" font-family="Times,serif" font-size="14.00">A0</text>
<polyline fill="none" stroke="black" points="413.97,-270 477.22,-270"/>
<text text-anchor="middle" x="445.59" y="-252.7" font-family="Times,serif" font-size="14.00">A1</text>
<polyline fill="none" stroke="black" points="413.97,-245.5 477.22,-245.5"/>
<text text-anchor="middle" x="445.59" y="-228.2" font-family="Times,serif" font-size="14.00">A2</text>
<polyline fill="none" stroke="black" points="413.97,-221 477.22,-221"/>
<text text-anchor="middle" x="445.59" y="-203.7" font-family="Times,serif" font-size="14.00">A3</text>
<polyline fill="none" stroke="black" points="413.97,-196.5 477.22,-196.5"/>
<text text-anchor="middle" x="445.59" y="-179.2" font-family="Times,serif" font-size="14.00">A4</text>
<polyline fill="none" stroke="black" points="413.97,-172 477.22,-172"/>
<text text-anchor="middle" x="445.59" y="-154.7" font-family="Times,serif" font-size="14.00">A5</text>
<polyline fill="none" stroke="black" points="413.97,-147.5 477.22,-147.5"/>
<text text-anchor="middle" x="445.59" y="-130.2" font-family="Times,serif" font-size="14.00">A6</text>
<polyline fill="none" stroke="black" points="413.97,-123 477.22,-123"/>
<text text-anchor="middle" x="445.59" y="-105.7" font-family="Times,serif" font-size="14.00">A7</text>
<polyline fill="none" stroke="black" points="413.97,-98.5 477.22,-98.5"/>
<text text-anchor="middle" x="445.59" y="-81.2" font-family="Times,serif" font-size="14.00">A8</text>
<polyline fill="none" stroke="black" points="413.97,-74 477.22,-74"/>
<text text-anchor="middle" x="445.59" y="-56.7" font-family="Times,serif" font-size="14.00">A9</text>
<polyline fill="none" stroke="black" points="413.97,-49.5 477.22,-49.5"/>
<text text-anchor="middle" x="445.59" y="-32.2" font-family="Times,serif" font-size="14.00">A10</text>
<polyline fill="none" stroke="black" points="413.97,-25 477.22,-25"/>
<text text-anchor="middle" x="445.59" y="-7.7" font-family="Times,serif" font-size="14.00">A11</text>
<polyline fill="none" stroke="black" points="477.22,-0.5 477.22,-490.5"/>
<text text-anchor="middle" x="491.97" y="-473.2" font-family="Times,serif" font-size="14.00">1</text>
<polyline fill="none" stroke="black" points="477.22,-466 506.72,-466"/>
<text text-anchor="middle" x="491.97" y="-448.7" font-family="Times,serif" font-size="14.00">2</text>
<polyline fill="none" stroke="black" points="477.22,-441.5 506.72,-441.5"/>
<text text-anchor="middle" x="491.97" y="-424.2" font-family="Times,serif" font-size="14.00">3</text>
<polyline fill="none" stroke="black" points="477.22,-417 506.72,-417"/>
<text text-anchor="middle" x="491.97" y="-399.7" font-family="Times,serif" font-size="14.00">4</text>
<polyline fill="none" stroke="black" points="477.22,-392.5 506.72,-392.5"/>
<text text-anchor="middle" x="491.97" y="-375.2" font-family="Times,serif" font-size="14.00">5</text>
<polyline fill="none" stroke="black" points="477.22,-368 506.72,-368"/>
<text text-anchor="middle" x="491.97" y="-350.7" font-family="Times,serif" font-size="14.00">6</text>
<polyline fill="none" stroke="black" points="477.22,-343.5 506.72,-343.5"/>
<text text-anchor="middle" x="491.97" y="-326.2" font-family="Times,serif" font-size="14.00">7</text>
<polyline fill="none" stroke="black" points="477.22,-319 506.72,-319"/>
<text text-anchor="middle" x="491.97" y="-301.7" font-family="Times,serif" font-size="14.00">8</text>
<polyline fill="none" stroke="black" points="477.22,-294.5 506.72,-294.5"/>
<text text-anchor="middle" x="491.97" y="-277.2" font-family="Times,serif" font-size="14.00">9</text>
<polyline fill="none" stroke="black" points="477.22,-270 506.72,-270"/>
<text text-anchor="middle" x="491.97" y="-252.7" font-family="Times,serif" font-size="14.00">10</text>
<polyline fill="none" stroke="black" points="477.22,-245.5 506.72,-245.5"/>
<text text-anchor="middle" x="491.97" y="-228.2" font-family="Times,serif" font-size="14.00">11</text>
<polyline fill="none" stroke="black" points="477.22,-221 506.72,-221"/>
<text text-anchor="middle" x="491.97" y="-203.7" font-family="Times,serif" font-size="14.00">12</text>
<polyline fill="none" stroke="black" points="477.22,-196.5 506.72,-196.5"/>
<text text-anchor="middle" x="491.97" y="-179.2" font-family="Times,serif" font-size="14.00">13</text>
<polyline fill="none" stroke="black" points="477.22,-172 506.72,-172"/>
<text text-anchor="middle" x="491.97" y="-154.7" font-family="Times,serif" font-size="14.00">14</text>
<polyline fill="none" stroke="black" points="477.22,-147.5 506.72,-147.5"/>
<text text-anchor="middle" x="491.97" y="-130.2" font-family="Times,serif" font-size="14.00">15</text>
<polyline fill="none" stroke="black" points="477.22,-123 506.72,-123"/>
<text text-anchor="middle" x="491.97" y="-105.7" font-family="Times,serif" font-size="14.00">16</text>
<polyline fill="none" stroke="black" points="477.22,-98.5 506.72,-98.5"/>
<text text-anchor="middle" x="491.97" y="-81.2" font-family="Times,serif" font-size="14.00">17</text>
<polyline fill="none" stroke="black" points="477.22,-74 506.72,-74"/>
<text text-anchor="middle" x="491.97" y="-56.7" font-family="Times,serif" font-size="14.00">18</text>
<polyline fill="none" stroke="black" points="477.22,-49.5 506.72,-49.5"/>
<text text-anchor="middle" x="491.97" y="-32.2" font-family="Times,serif" font-size="14.00">19</text>
<polyline fill="none" stroke="black" points="477.22,-25 506.72,-25"/>
<text text-anchor="middle" x="491.97" y="-7.7" font-family="Times,serif" font-size="14.00">20</text>
<polyline fill="none" stroke="black" points="506.72,-0.5 506.72,-490.5"/>
<text text-anchor="middle" x="528.22" y="-248.7" font-family="Times,serif" font-size="14.00">6502</text>
<text text-anchor="middle" x="528.22" y="-232.2" font-family="Times,serif" font-size="14.00">CPU</text>
<polyline fill="none" stroke="black" points="549.72,-0.5 549.72,-490.5"/>
<text text-anchor="middle" x="564.47" y="-473.2" font-family="Times,serif" font-size="14.00">40</text>
<polyline fill="none" stroke="black" points="549.72,-466 579.22,-466"/>
<text text-anchor="middle" x="564.47" y="-448.7" font-family="Times,serif" font-size="14.00">39</text>
<polyline fill="none" stroke="black" points="549.72,-441.5 579.22,-441.5"/>
<text text-anchor="middle" x="564.47" y="-424.2" font-family="Times,serif" font-size="14.00">38</text>
<polyline fill="none" stroke="black" points="549.72,-417 579.22,-417"/>
<text text-anchor="middle" x="564.47" y="-399.7" font-family="Times,serif" font-size="14.00">37</text>
<polyline fill="none" stroke="black" points="549.72,-392.5 579.22,-392.5"/>
<text text-anchor="middle" x="564.47" y="-375.2" font-family="Times,serif" font-size="14.00">36</text>
<polyline fill="none" stroke="black" points="549.72,-368 579.22,-368"/>
<text text-anchor="middle" x="564.47" y="-350.7" font-family="Times,serif" font-size="14.00">35</text>
<polyline fill="none" stroke="black" points="549.72,-343.5 579.22,-343.5"/>
<text text-anchor="middle" x="564.47" y="-326.2" font-family="Times,serif" font-size="14.00">34</text>
<polyline fill="none" stroke="black" points="549.72,-319 579.22,-319"/>
<text text-anchor="middle" x="564.47" y="-301.7" font-family="Times,serif" font-size="14.00">33</text>
<polyline fill="none" stroke="black" points="549.72,-294.5 579.22,-294.5"/>
<text text-anchor="middle" x="564.47" y="-277.2" font-family="Times,serif" font-size="14.00">32</text>
<polyline fill="none" stroke="black" points="549.72,-270 579.22,-270"/>
<text text-anchor="middle" x="564.47" y="-252.7" font-family="Times,serif" font-size="14.00">31</text>
<polyline fill="none" stroke="black" points="549.72,-245.5 579.22,-245.5"/>
<text text-anchor="middle" x="564.47" y="-228.2" font-family="Times,serif" font-size="14.00">30</text>
<polyline fill="none" stroke="black" points="549.72,-221 579.22,-221"/>
<text text-anchor="middle" x="564.47" y="-203.7" font-family="Times,serif" font-size="14.00">29</text>
<polyline fill="none" stroke="black" points="549.72,-196.5 579.22,-196.5"/>
<text text-anchor="middle" x="564.47" y="-179.2" font-family="Times,serif" font-size="14.00">28</text>
<polyline fill="none" stroke="black" points="549.72,-172 579.22,-172"/>
<text text-anchor="middle" x="564.47" y="-154.7" font-family="Times,serif" font-size="14.00">27</text>
<polyline fill="none" stroke="black" points="549.72,-147.5 579.22,-147.5"/>
<text text-anchor="middle" x="564.47" y="-130.2" font-family="Times,serif" font-size="14.00">26</text>
<polyline fill="none" stroke="black" points="549.72,-123 579.22,-123"/>
<text text-anchor="middle" x="564.47" y="-105.7" font-family="Times,serif" font-size="14.00">25</text>
<polyline fill="none" stroke="black" points="549.72,-98.5 579.22,-98.5"/>
<text text-anchor="middle" x="564.47" y="-81.2" font-family="Times,serif" font-size="14.00">24</text>
<polyline fill="none" stroke="black" points="549.72,-74 579.22,-74"/>
<text text-anchor="middle" x="564.47" y="-56.7" font-family="Times,serif" font-size="14.00">23</text>
<polyline fill="none" stroke="black" points="549.72,-49.5 579.22,-49.5"/>
<text text-anchor="middle" x="564.47" y="-32.2" font-family="Times,serif" font-size="14.00">22</text>
<polyline fill="none" stroke="black" points="549.72,-25 579.22,-25"/>
<text text-anchor="middle" x="564.47" y="-7.7" font-family="Times,serif" font-size="14.00">21</text>
<polyline fill="none" stroke="black" points="579.22,-0.5 579.22,-490.5"/>
<text text-anchor="middle" x="610.84" y="-473.2" font-family="Times,serif" font-size="14.00">RES</text>
<polyline fill="none" stroke="black" points="579.22,-466 642.47,-466"/>
<text text-anchor="middle" x="610.84" y="-448.7" font-family="Times,serif" font-size="14.00">2 (OUT)</text>
<polyline fill="none" stroke="black" points="579.22,-441.5 642.47,-441.5"/>
<text text-anchor="middle" x="610.84" y="-424.2" font-family="Times,serif" font-size="14.00">S.O.</text>
<polyline fill="none" stroke="black" points="579.22,-417 642.47,-417"/>
<text text-anchor="middle" x="610.84" y="-399.7" font-family="Times,serif" font-size="14.00">0 (IN)</text>
<polyline fill="none" stroke="black" points="579.22,-392.5 642.47,-392.5"/>
<text text-anchor="middle" x="610.84" y="-375.2" font-family="Times,serif" font-size="14.00">N.C.</text>
<polyline fill="none" stroke="black" points="579.22,-368 642.47,-368"/>
<text text-anchor="middle" x="610.84" y="-350.7" font-family="Times,serif" font-size="14.00">N.C.</text>
<polyline fill="none" stroke="black" points="579.22,-343.5 642.47,-343.5"/>
<text text-anchor="middle" x="610.84" y="-326.2" font-family="Times,serif" font-size="14.00">R/W</text>
<polyline fill="none" stroke="black" points="579.22,-319 642.47,-319"/>
<text text-anchor="middle" x="610.84" y="-301.7" font-family="Times,serif" font-size="14.00">D0</text>
<polyline fill="none" stroke="black" points="579.22,-294.5 642.47,-294.5"/>
<text text-anchor="middle" x="610.84" y="-277.2" font-family="Times,serif" font-size="14.00">D1</text>
<polyline fill="none" stroke="black" points="579.22,-270 642.47,-270"/>
<text text-anchor="middle" x="610.84" y="-252.7" font-family="Times,serif" font-size="14.00">D2</text>
<polyline fill="none" stroke="black" points="579.22,-245.5 642.47,-245.5"/>
<text text-anchor="middle" x="610.84" y="-228.2" font-family="Times,serif" font-size="14.00">D3</text>
<polyline fill="none" stroke="black" points="579.22,-221 642.47,-221"/>
<text text-anchor="middle" x="610.84" y="-203.7" font-family="Times,serif" font-size="14.00">D4</text>
<polyline fill="none" stroke="black" points="579.22,-196.5 642.47,-196.5"/>
<text text-anchor="middle" x="610.84" y="-179.2" font-family="Times,serif" font-size="14.00">D5</text>
<polyline fill="none" stroke="black" points="579.22,-172 642.47,-172"/>
<text text-anchor="middle" x="610.84" y="-154.7" font-family="Times,serif" font-size="14.00">D6</text>
<polyline fill="none" stroke="black" points="579.22,-147.5 642.47,-147.5"/>
<text text-anchor="middle" x="610.84" y="-130.2" font-family="Times,serif" font-size="14.00">D7</text>
<polyline fill="none" stroke="black" points="579.22,-123 642.47,-123"/>
<text text-anchor="middle" x="610.84" y="-105.7" font-family="Times,serif" font-size="14.00">A15</text>
<polyline fill="none" stroke="black" points="579.22,-98.5 642.47,-98.5"/>
<text text-anchor="middle" x="610.84" y="-81.2" font-family="Times,serif" font-size="14.00">A14</text>
<polyline fill="none" stroke="black" points="579.22,-74 642.47,-74"/>
<text text-anchor="middle" x="610.84" y="-56.7" font-family="Times,serif" font-size="14.00">A13</text>
<polyline fill="none" stroke="black" points="579.22,-49.5 642.47,-49.5"/>
<text text-anchor="middle" x="610.84" y="-32.2" font-family="Times,serif" font-size="14.00">A12</text>
<polyline fill="none" stroke="black" points="579.22,-25 642.47,-25"/>
<text text-anchor="middle" x="610.84" y="-7.7" font-family="Times,serif" font-size="14.00">VSS</text>
</g>
<!-- Node_4bb577742857dd34698fa60b9a44900d -->
<g id="node2" class="node">
<title>Node_4bb577742857dd34698fa60b9a44900d</title>
<ellipse fill="none" stroke="black" cx="958.34" cy="-245.5" rx="117.89" ry="18"/>
<text text-anchor="middle" x="958.34" y="-240.45" font-family="Times,serif" font-size="14.00">Other Complex Wiring Stuff</text>
</g>
<!-- Record_2a800ea2379cc3e8407a45429d5c739f&#45;&gt;Node_4bb577742857dd34698fa60b9a44900d -->
<g id="edge2" class="edge">
<title>Record_2a800ea2379cc3e8407a45429d5c739f:Node_db6bf2a6337d0b38a71ab2f496ce0a41&#45;&gt;Node_4bb577742857dd34698fa60b9a44900d</title>
<path fill="none" stroke="black" d="M642.92,-475.36C764.61,-544.95 941.58,-478.19 957.23,-275.06"/>
<polygon fill="black" stroke="black" points="960.71,-275.42 957.83,-265.22 953.73,-274.99 960.71,-275.42"/>
</g>
<!-- Record_2a800ea2379cc3e8407a45429d5c739f&#45;&gt;Node_4bb577742857dd34698fa60b9a44900d -->
<g id="edge3" class="edge">
<title>Record_2a800ea2379cc3e8407a45429d5c739f:Node_4a0bd5f9d649a06ece1abf0d7554787d&#45;&gt;Node_4bb577742857dd34698fa60b9a44900d</title>
<path fill="none" stroke="black" d="M642.92,-15.64C764.61,53.95 941.58,-12.81 957.23,-215.94"/>
<polygon fill="black" stroke="black" points="953.73,-216.01 957.83,-225.78 960.71,-215.58 953.73,-216.01"/>
</g>
<!-- Record_2a800ea2379cc3e8407a45429d5c739f&#45;&gt;Node_4bb577742857dd34698fa60b9a44900d -->
<g id="edge5" class="edge">
<title>Record_2a800ea2379cc3e8407a45429d5c739f:Node_5aebae28810daa6be31dc44d1b1976ec&#45;&gt;Node_4bb577742857dd34698fa60b9a44900d</title>
<path fill="none" stroke="black" d="M642.92,-39.83C763.88,22.06 939.46,-36.59 956.93,-215.8"/>
<polygon fill="black" stroke="black" points="953.43,-216 957.7,-225.7 960.41,-215.46 953.43,-216"/>
</g>
<!-- Record_2a800ea2379cc3e8407a45429d5c739f&#45;&gt;Node_4bb577742857dd34698fa60b9a44900d -->
<g id="edge12" class="edge">
<title>Record_2a800ea2379cc3e8407a45429d5c739f:Node_0ad2ad86bc5f41e85c8d60e8a44206df&#45;&gt;Node_4bb577742857dd34698fa60b9a44900d</title>
<path fill="none" stroke="black" d="M642.92,-64.03C762.98,-9.83 936.82,-60.4 956.51,-215.74"/>
<polygon fill="black" stroke="black" points="953.02,-216.01 957.5,-225.6 959.98,-215.3 953.02,-216.01"/>
</g>
<!-- Record_2a800ea2379cc3e8407a45429d5c739f&#45;&gt;Node_4bb577742857dd34698fa60b9a44900d -->
<g id="edge14" class="edge">
<title>Record_2a800ea2379cc3e8407a45429d5c739f:Node_7bc04604bf28cd6722b2ae795fc30705&#45;&gt;Node_4bb577742857dd34698fa60b9a44900d</title>
<path fill="none" stroke="black" d="M642.92,-88.23C761.89,-41.68 933.68,-84.29 955.94,-216.08"/>
<polygon fill="black" stroke="black" points="952.46,-216.46 957.25,-225.91 959.39,-215.53 952.46,-216.46"/>
</g>
<!-- Record_2a800ea2379cc3e8407a45429d5c739f&#45;&gt;Node_4bb577742857dd34698fa60b9a44900d -->
<g id="edge15" class="edge">
<title>Record_2a800ea2379cc3e8407a45429d5c739f:Node_fc4a642e090baabdd7534e9482c53361&#45;&gt;Node_4bb577742857dd34698fa60b9a44900d</title>
<path fill="none" stroke="black" d="M642.92,-112.42C760.33,-73.55 929.19,-108.16 954.98,-216.26"/>
<polygon fill="black" stroke="black" points="951.5,-216.64 956.8,-225.82 958.37,-215.34 951.5,-216.64"/>
</g>
<!-- Record_2a800ea2379cc3e8407a45429d5c739f&#45;&gt;Node_4bb577742857dd34698fa60b9a44900d -->
<g id="edge16" class="edge">
<title>Record_2a800ea2379cc3e8407a45429d5c739f:Node_d5fbd40c63ec534a27d8bc4d830ba765&#45;&gt;Node_4bb577742857dd34698fa60b9a44900d</title>
<path fill="none" stroke="black" d="M642.92,-136.62C757.95,-105.46 922.36,-132.01 953.24,-216.27"/>
<polygon fill="black" stroke="black" points="949.82,-217.04 955.97,-225.66 956.54,-215.08 949.82,-217.04"/>
</g>
<!-- Record_2a800ea2379cc3e8407a45429d5c739f&#45;&gt;Node_4bb577742857dd34698fa60b9a44900d -->
<g id="edge17" class="edge">
<title>Record_2a800ea2379cc3e8407a45429d5c739f:Node_5d78ba91fe335e884830da7dd6165d54&#45;&gt;Node_4bb577742857dd34698fa60b9a44900d</title>
<path fill="none" stroke="black" d="M642.92,-160.81C754.65,-137.27 912.98,-156.08 950.26,-217.24"/>
<polygon fill="black" stroke="black" points="947.02,-218.58 954.52,-226.06 953.32,-215.53 947.02,-218.58"/>
</g>
<!-- Record_2a800ea2379cc3e8407a45429d5c739f&#45;&gt;Node_4bb577742857dd34698fa60b9a44900d -->
<g id="edge19" class="edge">
<title>Record_2a800ea2379cc3e8407a45429d5c739f:Node_13a9e596dcf76f8f226a3a9c36f5f917&#45;&gt;Node_4bb577742857dd34698fa60b9a44900d</title>
<path fill="none" stroke="black" d="M642.92,-185.01C749.07,-169.03 897.28,-180.36 943.79,-219"/>
<polygon fill="black" stroke="black" points="941.15,-221.3 950.64,-226.01 946.15,-216.41 941.15,-221.3"/>
</g>
<!-- Record_2a800ea2379cc3e8407a45429d5c739f&#45;&gt;Node_4bb577742857dd34698fa60b9a44900d -->
<g id="edge20" class="edge">
<title>Record_2a800ea2379cc3e8407a45429d5c739f:Node_54fcbf0ebead74ee1921ad771da2620e&#45;&gt;Node_4bb577742857dd34698fa60b9a44900d</title>
<path fill="none" stroke="black" d="M642.92,-209.21C739.04,-200.53 869.65,-205.28 928,-223.47"/>
<polygon fill="black" stroke="black" points="926.66,-226.7 937.25,-226.77 929.02,-220.11 926.66,-226.7"/>
</g>
<!-- Record_2a800ea2379cc3e8407a45429d5c739f&#45;&gt;Node_4bb577742857dd34698fa60b9a44900d -->
<g id="edge21" class="edge">
<title>Record_2a800ea2379cc3e8407a45429d5c739f:Node_79746b3e18343334d434d3847e9ad274&#45;&gt;Node_4bb577742857dd34698fa60b9a44900d</title>
<path fill="none" stroke="black" d="M642.92,-233.4C708.42,-231.43 789.93,-231.54 853.68,-233.72"/>
<polygon fill="black" stroke="black" points="853.33,-237.21 863.45,-234.09 853.59,-230.22 853.33,-237.21"/>
</g>
<!-- Record_2a800ea2379cc3e8407a45429d5c739f&#45;&gt;Node_4bb577742857dd34698fa60b9a44900d -->
<g id="edge22" class="edge">
<title>Record_2a800ea2379cc3e8407a45429d5c739f:Node_1c9000696b064ebcc502cbfac65af577&#45;&gt;Node_4bb577742857dd34698fa60b9a44900d</title>
<path fill="none" stroke="black" d="M642.92,-257.6C708.42,-259.57 789.93,-259.46 853.68,-257.28"/>
<polygon fill="black" stroke="black" points="853.59,-260.78 863.45,-256.91 853.33,-253.79 853.59,-260.78"/>
</g>
<!-- Record_2a800ea2379cc3e8407a45429d5c739f&#45;&gt;Node_4bb577742857dd34698fa60b9a44900d -->
<g id="edge23" class="edge">
<title>Record_2a800ea2379cc3e8407a45429d5c739f:Node_7b2973f6e17ad407ccb5e7763259395c&#45;&gt;Node_4bb577742857dd34698fa60b9a44900d</title>
<path fill="none" stroke="black" d="M642.92,-281.79C739.04,-290.47 869.65,-285.72 928,-267.53"/>
<polygon fill="black" stroke="black" points="929.02,-270.89 937.25,-264.23 926.66,-264.3 929.02,-270.89"/>
</g>
<!-- Record_2a800ea2379cc3e8407a45429d5c739f&#45;&gt;Node_4bb577742857dd34698fa60b9a44900d -->
<g id="edge27" class="edge">
<title>Record_2a800ea2379cc3e8407a45429d5c739f:Node_c6a0be99044cd6dc372f86ae2ea9cac4&#45;&gt;Node_4bb577742857dd34698fa60b9a44900d</title>
<path fill="none" stroke="black" d="M642.92,-305.99C749.07,-321.97 897.28,-310.64 943.79,-272"/>
<polygon fill="black" stroke="black" points="946.15,-274.59 950.64,-264.99 941.15,-269.7 946.15,-274.59"/>
</g>
<!-- Record_2a800ea2379cc3e8407a45429d5c739f&#45;&gt;Node_4bb577742857dd34698fa60b9a44900d -->
<g id="edge33" class="edge">
<title>Record_2a800ea2379cc3e8407a45429d5c739f:Node_54d0227c1639c5bd6d3427d80ce0dafc&#45;&gt;Node_4bb577742857dd34698fa60b9a44900d</title>
<path fill="none" stroke="black" d="M642.92,-330.19C754.65,-353.73 912.98,-334.92 950.26,-273.76"/>
<polygon fill="black" stroke="black" points="953.32,-275.47 954.52,-264.94 947.02,-272.42 953.32,-275.47"/>
</g>
<!-- Record_2a800ea2379cc3e8407a45429d5c739f&#45;&gt;Node_4bb577742857dd34698fa60b9a44900d -->
<g id="edge34" class="edge">
<title>Record_2a800ea2379cc3e8407a45429d5c739f:Node_f631e73802b9c614ea62b2660e8db6b1&#45;&gt;Node_4bb577742857dd34698fa60b9a44900d</title>
<path fill="none" stroke="black" d="M642.92,-354.38C757.95,-385.54 922.36,-358.99 953.24,-274.73"/>
<polygon fill="black" stroke="black" points="956.54,-275.92 955.97,-265.34 949.82,-273.96 956.54,-275.92"/>
</g>
<!-- Record_2a800ea2379cc3e8407a45429d5c739f&#45;&gt;Node_4bb577742857dd34698fa60b9a44900d -->
<g id="edge36" class="edge">
<title>Record_2a800ea2379cc3e8407a45429d5c739f:Node_e628bf03d42d3f32278ab871b0710479&#45;&gt;Node_4bb577742857dd34698fa60b9a44900d</title>
<path fill="none" stroke="black" d="M642.92,-378.58C760.33,-417.45 929.19,-382.84 954.98,-274.74"/>
<polygon fill="black" stroke="black" points="958.37,-275.66 956.8,-265.18 951.5,-274.36 958.37,-275.66"/>
</g>
<!-- Record_2a800ea2379cc3e8407a45429d5c739f&#45;&gt;Node_4bb577742857dd34698fa60b9a44900d -->
<g id="edge38" class="edge">
<title>Record_2a800ea2379cc3e8407a45429d5c739f:Node_17bad9a05d00849f3694ac6a7042879f&#45;&gt;Node_4bb577742857dd34698fa60b9a44900d</title>
<path fill="none" stroke="black" d="M642.92,-402.77C761.89,-449.32 933.68,-406.71 955.94,-274.92"/>
<polygon fill="black" stroke="black" points="959.39,-275.47 957.25,-265.09 952.46,-274.54 959.39,-275.47"/>
</g>
<!-- Record_2a800ea2379cc3e8407a45429d5c739f&#45;&gt;Node_4bb577742857dd34698fa60b9a44900d -->
<g id="edge39" class="edge">
<title>Record_2a800ea2379cc3e8407a45429d5c739f:Node_3b153b64d8d9e7fc4ee4aaadbd2998ec&#45;&gt;Node_4bb577742857dd34698fa60b9a44900d</title>
<path fill="none" stroke="black" d="M642.92,-426.97C762.98,-481.17 936.82,-430.6 956.51,-275.26"/>
<polygon fill="black" stroke="black" points="959.98,-275.7 957.5,-265.4 953.02,-274.99 959.98,-275.7"/>
</g>
<!-- Record_2a800ea2379cc3e8407a45429d5c739f&#45;&gt;Node_4bb577742857dd34698fa60b9a44900d -->
<g id="edge40" class="edge">
<title>Record_2a800ea2379cc3e8407a45429d5c739f:Node_3805ea2d4e43c827514ac935685410e0&#45;&gt;Node_4bb577742857dd34698fa60b9a44900d</title>
<path fill="none" stroke="black" d="M642.92,-451.17C763.88,-513.06 939.46,-454.41 956.93,-275.2"/>
<polygon fill="black" stroke="black" points="960.41,-275.54 957.7,-265.3 953.43,-275 960.41,-275.54"/>
</g>
<!-- Node_e76d8b11a66c820912a84bc129e46194 -->
<g id="node3" class="node">
<title>Node_e76d8b11a66c820912a84bc129e46194</title>
<ellipse fill="none" stroke="black" cx="94.34" cy="-245.5" rx="94.34" ry="18"/>
<text text-anchor="middle" x="94.34" y="-240.45" font-family="Times,serif" font-size="14.00">Complex Wiring Stuff</text>
</g>
<!-- Node_e76d8b11a66c820912a84bc129e46194&#45;&gt;Record_2a800ea2379cc3e8407a45429d5c739f -->
<g id="edge1" class="edge">
<title>Node_e76d8b11a66c820912a84bc129e46194&#45;&gt;Record_2a800ea2379cc3e8407a45429d5c739f:Node_1c0584fd36abd3996d644bb0bc5a49a9</title>
<path fill="none" stroke="black" d="M94.76,-263.7C104.43,-470.67 278.96,-542.82 403.56,-480.15"/>
<polygon fill="black" stroke="black" points="405.09,-483.3 412.24,-475.48 401.77,-477.14 405.09,-483.3"/>
</g>
<!-- Node_e76d8b11a66c820912a84bc129e46194&#45;&gt;Record_2a800ea2379cc3e8407a45429d5c739f -->
<g id="edge4" class="edge">
<title>Node_e76d8b11a66c820912a84bc129e46194&#45;&gt;Record_2a800ea2379cc3e8407a45429d5c739f:Node_afae0cd50f5fb13f04faef1f0fef2418</title>
<path fill="none" stroke="black" d="M94.76,-227.3C104.43,-20.33 278.96,51.82 403.56,-10.85"/>
<polygon fill="black" stroke="black" points="401.77,-13.86 412.24,-15.52 405.09,-7.7 401.77,-13.86"/>
</g>
<!-- Node_e76d8b11a66c820912a84bc129e46194&#45;&gt;Record_2a800ea2379cc3e8407a45429d5c739f -->
<g id="edge6" class="edge">
<title>Node_e76d8b11a66c820912a84bc129e46194&#45;&gt;Record_2a800ea2379cc3e8407a45429d5c739f:Node_b71eebfd921c23c21853234041b8f0dc</title>
<path fill="none" stroke="black" d="M94.88,-227.06C105.77,-43.73 279.06,20.17 403.16,-35.37"/>
<polygon fill="black" stroke="black" points="401.61,-38.51 412.14,-39.68 404.64,-32.2 401.61,-38.51"/>
</g>
<!-- Node_e76d8b11a66c820912a84bc129e46194&#45;&gt;Record_2a800ea2379cc3e8407a45429d5c739f -->
<g id="edge7" class="edge">
<title>Node_e76d8b11a66c820912a84bc129e46194&#45;&gt;Record_2a800ea2379cc3e8407a45429d5c739f:Node_bbe4e569989f2a1d4fa8589dc5f7460d</title>
<path fill="none" stroke="black" d="M95.02,-227.34C107.13,-66.92 279.78,-11.2 403.41,-60.19"/>
<polygon fill="black" stroke="black" points="401.75,-63.29 412.32,-63.98 404.48,-56.85 401.75,-63.29"/>
</g>
<!-- Node_e76d8b11a66c820912a84bc129e46194&#45;&gt;Record_2a800ea2379cc3e8407a45429d5c739f -->
<g id="edge8" class="edge">
<title>Node_e76d8b11a66c820912a84bc129e46194&#45;&gt;Record_2a800ea2379cc3e8407a45429d5c739f:Node_636563a9a1c4a4b201a1104b79bfb92c</title>
<path fill="none" stroke="black" d="M95.27,-227.15C109.29,-90.26 280.23,-42.8 403.05,-84.78"/>
<polygon fill="black" stroke="black" points="401.65,-87.99 412.24,-88.15 404.06,-81.42 401.65,-87.99"/>
</g>
<!-- Node_e76d8b11a66c820912a84bc129e46194&#45;&gt;Record_2a800ea2379cc3e8407a45429d5c739f -->
<g id="edge9" class="edge">
<title>Node_e76d8b11a66c820912a84bc129e46194&#45;&gt;Record_2a800ea2379cc3e8407a45429d5c739f:Node_209d51131790ede1a2cd8ade4da1a7b1</title>
<path fill="none" stroke="black" d="M95.63,-227.25C111.96,-113.64 280.83,-74.35 402.65,-109.39"/>
<polygon fill="black" stroke="black" points="401.51,-112.7 412.1,-112.32 403.59,-106.01 401.51,-112.7"/>
</g>
<!-- Node_e76d8b11a66c820912a84bc129e46194&#45;&gt;Record_2a800ea2379cc3e8407a45429d5c739f -->
<g id="edge10" class="edge">
<title>Node_e76d8b11a66c820912a84bc129e46194&#45;&gt;Record_2a800ea2379cc3e8407a45429d5c739f:Node_457314bfe9f73bed4b90a6ef15e29cb9</title>
<path fill="none" stroke="black" d="M96.28,-227.26C115.99,-136.88 282.18,-105.83 402.53,-134.11"/>
<polygon fill="black" stroke="black" points="401.65,-137.49 412.2,-136.56 403.37,-130.71 401.65,-137.49"/>
</g>
<!-- Node_e76d8b11a66c820912a84bc129e46194&#45;&gt;Record_2a800ea2379cc3e8407a45429d5c739f -->
<g id="edge11" class="edge">
<title>Node_e76d8b11a66c820912a84bc129e46194&#45;&gt;Record_2a800ea2379cc3e8407a45429d5c739f:Node_e6818e97334a80113c8444022f2356ce</title>
<path fill="none" stroke="black" d="M97.59,-227.28C122.4,-160.14 284.34,-137.32 402.35,-158.83"/>
<polygon fill="black" stroke="black" points="401.66,-162.26 412.15,-160.76 403.01,-155.39 401.66,-162.26"/>
</g>
<!-- Node_e76d8b11a66c820912a84bc129e46194&#45;&gt;Record_2a800ea2379cc3e8407a45429d5c739f -->
<g id="edge13" class="edge">
<title>Node_e76d8b11a66c820912a84bc129e46194&#45;&gt;Record_2a800ea2379cc3e8407a45429d5c739f:Node_682794dccaaa94a244dd33370ffb38df</title>
<path fill="none" stroke="black" d="M100.81,-227.4C134.07,-183.38 288.63,-168.78 402.37,-183.59"/>
<polygon fill="black" stroke="black" points="401.7,-187.03 412.09,-184.96 402.67,-180.1 401.7,-187.03"/>
</g>
<!-- Node_e76d8b11a66c820912a84bc129e46194&#45;&gt;Record_2a800ea2379cc3e8407a45429d5c739f -->
<g id="edge18" class="edge">
<title>Node_e76d8b11a66c820912a84bc129e46194&#45;&gt;Record_2a800ea2379cc3e8407a45429d5c739f:Node_1a3c75c3f0269d587733beef6f058401</title>
<path fill="none" stroke="black" d="M113.83,-227.43C163.81,-206.68 299.87,-200.33 402.55,-208.37"/>
<polygon fill="black" stroke="black" points="402.19,-211.85 412.45,-209.21 402.78,-204.88 402.19,-211.85"/>
</g>
<!-- Node_e76d8b11a66c820912a84bc129e46194&#45;&gt;Record_2a800ea2379cc3e8407a45429d5c739f -->
<g id="edge24" class="edge">
<title>Node_e76d8b11a66c820912a84bc129e46194&#45;&gt;Record_2a800ea2379cc3e8407a45429d5c739f:Node_6970176f4c45ebd458ee3a5efb931548</title>
<path fill="none" stroke="black" d="M171.91,-234.87C235.9,-231.76 327.94,-231.18 402.45,-233.12"/>
<polygon fill="black" stroke="black" points="402.17,-236.61 412.27,-233.4 402.37,-229.62 402.17,-236.61"/>
</g>
<!-- Node_e76d8b11a66c820912a84bc129e46194&#45;&gt;Record_2a800ea2379cc3e8407a45429d5c739f -->
<g id="edge25" class="edge">
<title>Node_e76d8b11a66c820912a84bc129e46194&#45;&gt;Record_2a800ea2379cc3e8407a45429d5c739f:Node_330b045ac464db7e32c522d200e4b26f</title>
<path fill="none" stroke="black" d="M171.91,-256.13C235.9,-259.24 327.94,-259.82 402.45,-257.88"/>
<polygon fill="black" stroke="black" points="402.37,-261.38 412.27,-257.6 402.17,-254.39 402.37,-261.38"/>
</g>
<!-- Node_e76d8b11a66c820912a84bc129e46194&#45;&gt;Record_2a800ea2379cc3e8407a45429d5c739f -->
<g id="edge26" class="edge">
<title>Node_e76d8b11a66c820912a84bc129e46194&#45;&gt;Record_2a800ea2379cc3e8407a45429d5c739f:Node_e4211c9e81eba0acccceaa678708a3f2</title>
<path fill="none" stroke="black" d="M113.83,-263.57C163.81,-284.32 299.87,-290.67 402.55,-282.63"/>
<polygon fill="black" stroke="black" points="402.78,-286.12 412.45,-281.79 402.19,-279.15 402.78,-286.12"/>
</g>
<!-- Node_e76d8b11a66c820912a84bc129e46194&#45;&gt;Record_2a800ea2379cc3e8407a45429d5c739f -->
<g id="edge28" class="edge">
<title>Node_e76d8b11a66c820912a84bc129e46194&#45;&gt;Record_2a800ea2379cc3e8407a45429d5c739f:Node_bd6bdf8229b4a0a3dff9ec1007f77ced</title>
<path fill="none" stroke="black" d="M100.81,-263.6C134.07,-307.62 288.63,-322.22 402.37,-307.41"/>
<polygon fill="black" stroke="black" points="402.67,-310.9 412.09,-306.04 401.7,-303.97 402.67,-310.9"/>
</g>
<!-- Node_e76d8b11a66c820912a84bc129e46194&#45;&gt;Record_2a800ea2379cc3e8407a45429d5c739f -->
<g id="edge29" class="edge">
<title>Node_e76d8b11a66c820912a84bc129e46194&#45;&gt;Record_2a800ea2379cc3e8407a45429d5c739f:Node_5e491318fd954a2a440c631813dea942</title>
<path fill="none" stroke="black" d="M97.59,-263.72C122.4,-330.86 284.34,-353.68 402.35,-332.17"/>
<polygon fill="black" stroke="black" points="403.01,-335.61 412.15,-330.24 401.66,-328.74 403.01,-335.61"/>
</g>
<!-- Node_e76d8b11a66c820912a84bc129e46194&#45;&gt;Record_2a800ea2379cc3e8407a45429d5c739f -->
<g id="edge30" class="edge">
<title>Node_e76d8b11a66c820912a84bc129e46194&#45;&gt;Record_2a800ea2379cc3e8407a45429d5c739f:Node_67f82ec039d581ca482d1e3472dfe2af</title>
<path fill="none" stroke="black" d="M96.28,-263.74C115.99,-354.12 282.18,-385.17 402.53,-356.89"/>
<polygon fill="black" stroke="black" points="403.37,-360.29 412.2,-354.44 401.65,-353.51 403.37,-360.29"/>
</g>
<!-- Node_e76d8b11a66c820912a84bc129e46194&#45;&gt;Record_2a800ea2379cc3e8407a45429d5c739f -->
<g id="edge31" class="edge">
<title>Node_e76d8b11a66c820912a84bc129e46194&#45;&gt;Record_2a800ea2379cc3e8407a45429d5c739f:Node_59507370115f896a7627f3f225dd8add</title>
<path fill="none" stroke="black" d="M95.63,-263.75C111.96,-377.36 280.83,-416.65 402.65,-381.61"/>
<polygon fill="black" stroke="black" points="403.59,-384.99 412.1,-378.68 401.51,-378.3 403.59,-384.99"/>
</g>
<!-- Node_e76d8b11a66c820912a84bc129e46194&#45;&gt;Record_2a800ea2379cc3e8407a45429d5c739f -->
<g id="edge32" class="edge">
<title>Node_e76d8b11a66c820912a84bc129e46194&#45;&gt;Record_2a800ea2379cc3e8407a45429d5c739f:Node_ccf148b984e2af8dd0c18f82819a6384</title>
<path fill="none" stroke="black" d="M95.27,-263.85C109.29,-400.74 280.23,-448.2 403.05,-406.22"/>
<polygon fill="black" stroke="black" points="404.06,-409.58 412.24,-402.85 401.65,-403.01 404.06,-409.58"/>
</g>
<!-- Node_e76d8b11a66c820912a84bc129e46194&#45;&gt;Record_2a800ea2379cc3e8407a45429d5c739f -->
<g id="edge35" class="edge">
<title>Node_e76d8b11a66c820912a84bc129e46194&#45;&gt;Record_2a800ea2379cc3e8407a45429d5c739f:Node_3e73d4273ecfd5c9677e1ef2ee61f882</title>
<path fill="none" stroke="black" d="M95.02,-263.66C107.13,-424.08 279.78,-479.8 403.41,-430.81"/>
<polygon fill="black" stroke="black" points="404.48,-434.15 412.32,-427.02 401.75,-427.71 404.48,-434.15"/>
</g>
<!-- Node_e76d8b11a66c820912a84bc129e46194&#45;&gt;Record_2a800ea2379cc3e8407a45429d5c739f -->
<g id="edge37" class="edge">
<title>Node_e76d8b11a66c820912a84bc129e46194&#45;&gt;Record_2a800ea2379cc3e8407a45429d5c739f:Node_a7a2bdbcb3efc13a489a18c916808faf</title>
<path fill="none" stroke="black" d="M94.88,-263.94C105.77,-447.27 279.06,-511.17 403.16,-455.63"/>
<polygon fill="black" stroke="black" points="404.64,-458.8 412.14,-451.32 401.61,-452.49 404.64,-458.8"/>
</g>
</g>
</svg>
