<?xml version="1.0" encoding="UTF-8" standalone="no"?>
<!DOCTYPE svg PUBLIC "-//W3C//DTD SVG 1.1//EN"
 "http://www.w3.org/Graphics/SVG/1.1/DTD/svg11.dtd">
<!-- Generated by graphviz version 12.2.1 (20241206.2353)
 -->
<!-- Pages: 1 -->
<svg width="285pt" height="91pt"
 viewBox="0.00 0.00 285.16 90.76" xmlns="http://www.w3.org/2000/svg" xmlns:xlink="http://www.w3.org/1999/xlink">
<g id="graph0" class="graph" transform="scale(1 1) rotate(0) translate(4 86.76)">
<polygon fill="white" stroke="none" points="-4,4 -4,-86.76 281.16,-86.76 281.16,4 -4,4"/>
<!-- Node_ae003fe2844fc6699c573cda610098c0 -->
<g id="node1" class="node">
<title>Node_ae003fe2844fc6699c573cda610098c0</title>
<ellipse fill="lightgreen" stroke="black" cx="44.7" cy="-24.13" rx="44.7" ry="18"/>
<text text-anchor="middle" x="44.7" y="-19.08" font-family="Times,serif" font-size="14.00">q0 (start)</text>
</g>
<!-- Node_10c030b1aaac07ef81dacd8e748803a1 -->
<g id="node3" class="node">
<title>Node_10c030b1aaac07ef81dacd8e748803a1</title>
<ellipse fill="none" stroke="black" cx="159.15" cy="-24.13" rx="27" ry="18"/>
<text text-anchor="middle" x="159.15" y="-19.08" font-family="Times,serif" font-size="14.00">q1</text>
</g>
<!-- Node_ae003fe2844fc6699c573cda610098c0&#45;&gt;Node_10c030b1aaac07ef81dacd8e748803a1 -->
<g id="edge2" class="edge">
<title>Node_ae003fe2844fc6699c573cda610098c0&#45;&gt;Node_10c030b1aaac07ef81dacd8e748803a1</title>
<path fill="none" stroke="black" d="M89.82,-24.13C99.88,-24.13 110.48,-24.13 120.26,-24.13"/>
<polygon fill="black" stroke="black" points="120.16,-27.63 130.16,-24.13 120.16,-20.63 120.16,-27.63"/>
<text text-anchor="middle" x="110.77" y="-27.33" font-family="Times,serif" font-size="14.00">1</text>
</g>
<!-- Node_4e485efb857826318d6bf5dd57caef35 -->
<g id="node2" class="node">
<title>Node_4e485efb857826318d6bf5dd57caef35</title>
<ellipse fill="lightblue" stroke="black" cx="253.03" cy="-24.13" rx="20.13" ry="20.13"/>
<ellipse fill="none" stroke="black" cx="253.03" cy="-24.13" rx="24.13" ry="24.13"/>
<text text-anchor="middle" x="253.03" y="-19.08" font-family="Times,serif" font-size="14.00">q2</text>
</g>
<!-- Node_4e485efb857826318d6bf5dd57caef35&#45;&gt;Node_4e485efb857826318d6bf5dd57caef35 -->
<g id="edge4" class="edge">
<title>Node_4e485efb857826318d6bf5dd57caef35&#45;&gt;Node_4e485efb857826318d6bf5dd57caef35</title>
<path fill="none" stroke="black" d="M244.63,-47.1C243.83,-57.38 246.63,-66.26 253.03,-66.26 256.83,-66.26 259.36,-63.13 260.62,-58.43"/>
<polygon fill="black" stroke="black" points="264.1,-58.83 261.32,-48.61 257.12,-58.34 264.1,-58.83"/>
<text text-anchor="middle" x="253.03" y="-69.46" font-family="Times,serif" font-size="14.00">0</text>
</g>
<!-- Node_10c030b1aaac07ef81dacd8e748803a1&#45;&gt;Node_4e485efb857826318d6bf5dd57caef35 -->
<g id="edge1" class="edge">
<title>Node_10c030b1aaac07ef81dacd8e748803a1&#45;&gt;Node_4e485efb857826318d6bf5dd57caef35</title>
<path fill="none" stroke="black" d="M186.23,-24.13C195.94,-24.13 207.12,-24.13 217.48,-24.13"/>
<polygon fill="black" stroke="black" points="217.19,-27.63 227.19,-24.13 217.19,-20.63 217.19,-27.63"/>
<text text-anchor="middle" x="207.52" y="-27.33" font-family="Times,serif" font-size="14.00">0</text>
</g>
<!-- Node_10c030b1aaac07ef81dacd8e748803a1&#45;&gt;Node_10c030b1aaac07ef81dacd8e748803a1 -->
<g id="edge3" class="edge">
<title>Node_10c030b1aaac07ef81dacd8e748803a1&#45;&gt;Node_10c030b1aaac07ef81dacd8e748803a1</title>
<path fill="none" stroke="black" d="M150.51,-41.54C148.9,-51.22 151.78,-60.13 159.15,-60.13 163.41,-60.13 166.17,-57.15 167.42,-52.77"/>
<polygon fill="black" stroke="black" points="170.91,-53.16 167.73,-43.05 163.92,-52.94 170.91,-53.16"/>
<text text-anchor="middle" x="159.15" y="-63.33" font-family="Times,serif" font-size="14.00">1</text>
</g>
</g>
</svg>
